<svg version="1.1" viewBox="0.0 0.0 161.66666666666666 185.0" fill="none" stroke="none" stroke-linecap="square" stroke-miterlimit="10" xmlns:xlink="http://www.w3.org/1999/xlink" xmlns="http://www.w3.org/2000/svg"><clipPath id="p.0"><path d="m0 0l161.66667 0l0 185.0l-161.66667 0l0 -185.0z" clip-rule="nonzero"/></clipPath><g clip-path="url(#p.0)"><path fill="#000000" fill-opacity="0.0" d="m0 0l161.66667 0l0 185.0l-161.66667 0z" fill-rule="evenodd"/><path fill="#dcc799" d="m1.4409449 -2.0l163.9055 0l0 189.73228l-163.9055 0z" fill-rule="evenodd"/><path fill="#000000" fill-opacity="0.0" d="m13.448819 -2.0l0 189.10236" fill-rule="evenodd"/><path stroke="#ad8c6f" stroke-width="3.0" stroke-linejoin="round" stroke-linecap="butt" d="m13.448819 -2.0l0 189.10236" fill-rule="evenodd"/><path fill="#000000" fill-opacity="0.0" d="m34.16798 -1.3700787l0 189.10236" fill-rule="evenodd"/><path stroke="#ad8c6f" stroke-width="3.0" stroke-linejoin="round" stroke-linecap="butt" d="m34.16798 -1.3700787l0 189.10236" fill-rule="evenodd"/><path fill="#000000" fill-opacity="0.0" d="m95.2126 -1.3700787l0 189.10236" fill-rule="evenodd"/><path stroke="#ad8c6f" stroke-width="3.0" stroke-linejoin="round" stroke-linecap="butt" d="m95.2126 -1.3700787l0 189.10236" fill-rule="evenodd"/><path fill="#000000" fill-opacity="0.0" d="m114.37008 -1.0629921l0 189.10236" fill-rule="evenodd"/><path stroke="#ad8c6f" stroke-width="3.0" stroke-linejoin="round" stroke-linecap="butt" d="m114.37008 -1.0629921l0 189.10236" fill-rule="evenodd"/><path fill="#000000" fill-opacity="0.0" d="m132.80315 -1.0629921l0 189.10236" fill-rule="evenodd"/><path stroke="#ad8c6f" stroke-width="3.0" stroke-linejoin="round" stroke-linecap="butt" d="m132.80315 -1.0629921l0 189.10236" fill-rule="evenodd"/><path fill="#000000" fill-opacity="0.0" d="m147.33595 -1.0629921l0 189.10236" fill-rule="evenodd"/><path stroke="#ad8c6f" stroke-width="3.0" stroke-linejoin="round" stroke-linecap="butt" d="m147.33595 -1.0629921l0 189.10236" fill-rule="evenodd"/><path fill="#000000" fill-opacity="0.0" d="m13.199491 40.874016c1.8866491 -0.48389435 7.7589827 -2.8861084 11.319894 -2.9033585c3.560913 -0.017250061 8.371317 2.3332176 10.045584 2.799862" fill-rule="evenodd"/><path stroke="#ad8c6f" stroke-width="2.0" stroke-linejoin="round" stroke-linecap="butt" d="m13.199491 40.874016c1.8866491 -0.48389435 7.7589827 -2.8861084 11.319894 -2.9033585c3.560913 -0.017250061 8.371317 2.3332176 10.045584 2.799862" fill-rule="evenodd"/><path fill="#000000" fill-opacity="0.0" d="m12.8031645 178.17848c1.8866491 -0.48390198 7.7589827 -2.8861084 11.319896 -2.903366c3.560913 -0.017242432 8.371317 2.3332214 10.04558 2.7998657" fill-rule="evenodd"/><path stroke="#ad8c6f" stroke-width="2.0" stroke-linejoin="round" stroke-linecap="butt" d="m12.8031645 178.17848c1.8866491 -0.48390198 7.7589827 -2.8861084 11.319896 -2.903366c3.560913 -0.017242432 8.371317 2.3332214 10.04558 2.7998657" fill-rule="evenodd"/><path fill="#000000" fill-opacity="0.0" d="m94.14026 31.551182c1.6516418 -0.48389435 6.7925034 -2.8861084 9.909859 -2.9033585c3.1173553 -0.017248154 7.32856 2.3332176 8.794273 2.799862" fill-rule="evenodd"/><path stroke="#ad8c6f" stroke-width="2.0" stroke-linejoin="round" stroke-linecap="butt" d="m94.14026 31.551182c1.6516418 -0.48389435 6.7925034 -2.8861084 9.909859 -2.9033585c3.1173553 -0.017248154 7.32856 2.3332176 8.794273 2.799862" fill-rule="evenodd"/><path fill="#000000" fill-opacity="0.0" d="m94.48147 120.92913c1.6516418 -0.48388672 6.7924957 -2.8861084 9.909851 -2.9033508c3.1173553 -0.017250061 7.3285675 2.3332138 8.794273 2.799858" fill-rule="evenodd"/><path stroke="#ad8c6f" stroke-width="2.0" stroke-linejoin="round" stroke-linecap="butt" d="m94.48147 120.92913c1.6516418 -0.48388672 6.7924957 -2.8861084 9.909851 -2.9033508c3.1173553 -0.017250061 7.3285675 2.3332138 8.794273 2.799858" fill-rule="evenodd"/><path fill="#000000" fill-opacity="0.0" d="m114.09827 183.36745c1.6516418 -0.48388672 6.7924957 -2.8861084 9.909851 -2.9033508c3.1173553 -0.017242432 7.3285675 2.3332214 8.794281 2.7998657" fill-rule="evenodd"/><path stroke="#ad8c6f" stroke-width="2.0" stroke-linejoin="round" stroke-linecap="butt" d="m114.09827 183.36745c1.6516418 -0.48388672 6.7924957 -2.8861084 9.909851 -2.9033508c3.1173553 -0.017242432 7.3285675 2.3332214 8.794281 2.7998657" fill-rule="evenodd"/><path fill="#000000" fill-opacity="0.0" d="m114.09827 70.585304c1.6516418 -0.48389435 6.7924957 -2.8861084 9.909851 -2.9033585c3.1173553 -0.017250061 7.3285675 2.3332138 8.794281 2.799858" fill-rule="evenodd"/><path stroke="#ad8c6f" stroke-width="2.0" stroke-linejoin="round" stroke-linecap="butt" d="m114.09827 70.585304c1.6516418 -0.48389435 6.7924957 -2.8861084 9.909851 -2.9033585c3.1173553 -0.017250061 7.3285675 2.3332138 8.794281 2.799858" fill-rule="evenodd"/><path fill="#000000" fill-opacity="0.0" d="m132.20866 104.154854c1.306961 -0.48389435 5.3749847 -2.8861084 7.841797 -2.9033585c2.4667969 -0.017250061 5.799179 2.3332214 6.959015 2.7998657" fill-rule="evenodd"/><path stroke="#ad8c6f" stroke-width="2.0" stroke-linejoin="round" stroke-linecap="butt" d="m132.20866 104.154854c1.306961 -0.48389435 5.3749847 -2.8861084 7.841797 -2.9033585c2.4667969 -0.017250061 5.799179 2.3332214 6.959015 2.7998657" fill-rule="evenodd"/><path fill="#000000" fill-opacity="0.0" d="m132.20866 49.385826c1.306961 -0.48389053 5.3749847 -2.8861084 7.841797 -2.9033585c2.4667969 -0.017246246 5.799179 2.3332176 6.959015 2.799862" fill-rule="evenodd"/><path stroke="#ad8c6f" stroke-width="2.0" stroke-linejoin="round" stroke-linecap="butt" d="m132.20866 49.385826c1.306961 -0.48389053 5.3749847 -2.8861084 7.841797 -2.9033585c2.4667969 -0.017246246 5.799179 2.3332176 6.959015 2.799862" fill-rule="evenodd"/><path fill="#000000" fill-opacity="0.0" d="m132.20735 163.41208c1.306961 -0.48390198 5.3749847 -2.8861084 7.841797 -2.903366c2.4667969 -0.017242432 5.799179 2.3332214 6.959015 2.7998657" fill-rule="evenodd"/><path stroke="#ad8c6f" stroke-width="2.0" stroke-linejoin="round" stroke-linecap="butt" d="m132.20735 163.41208c1.306961 -0.48390198 5.3749847 -2.8861084 7.841797 -2.903366c2.4667969 -0.017242432 5.799179 2.3332214 6.959015 2.7998657" fill-rule="evenodd"/><path fill="#000000" fill-opacity="0.0" d="m46.64042 -1.6850394l0 189.10237" fill-rule="evenodd"/><path stroke="#ad8c6f" stroke-width="3.0" stroke-linejoin="round" stroke-linecap="butt" d="m46.64042 -1.6850394l0 189.10237" fill-rule="evenodd"/><path fill="#000000" fill-opacity="0.0" d="m65.073494 -1.6850394l0 189.10237" fill-rule="evenodd"/><path stroke="#ad8c6f" stroke-width="3.0" stroke-linejoin="round" stroke-linecap="butt" d="m65.073494 -1.6850394l0 189.10237" fill-rule="evenodd"/><path fill="#000000" fill-opacity="0.0" d="m79.6063 -1.6850394l0 189.10237" fill-rule="evenodd"/><path stroke="#ad8c6f" stroke-width="3.0" stroke-linejoin="round" stroke-linecap="butt" d="m79.6063 -1.6850394l0 189.10237" fill-rule="evenodd"/><path fill="#000000" fill-opacity="0.0" d="m46.368607 183.36745c1.6516418 -0.48388672 6.7924995 -2.8861084 9.909855 -2.9033508c3.1173553 -0.017242432 7.32856 2.3332214 8.79427 2.7998657" fill-rule="evenodd"/><path stroke="#ad8c6f" stroke-width="2.0" stroke-linejoin="round" stroke-linecap="butt" d="m46.368607 183.36745c1.6516418 -0.48388672 6.7924995 -2.8861084 9.909855 -2.9033508c3.1173553 -0.017242432 7.32856 2.3332214 8.79427 2.7998657" fill-rule="evenodd"/><path fill="#000000" fill-opacity="0.0" d="m46.368607 69.96326c1.6516418 -0.48389435 6.7924995 -2.8861084 9.909855 -2.9033585c3.1173553 -0.017250061 7.32856 2.3332138 8.79427 2.799858" fill-rule="evenodd"/><path stroke="#ad8c6f" stroke-width="2.0" stroke-linejoin="round" stroke-linecap="butt" d="m46.368607 69.96326c1.6516418 -0.48389435 6.7924995 -2.8861084 9.909855 -2.9033585c3.1173553 -0.017250061 7.32856 2.3332138 8.79427 2.799858" fill-rule="evenodd"/><path fill="#000000" fill-opacity="0.0" d="m64.479004 103.53281c1.3069687 -0.48389435 5.3749924 -2.8861084 7.841797 -2.9033585c2.4668045 -0.017250061 5.7991867 2.3332214 6.9590225 2.7998657" fill-rule="evenodd"/><path stroke="#ad8c6f" stroke-width="2.0" stroke-linejoin="round" stroke-linecap="butt" d="m64.479004 103.53281c1.3069687 -0.48389435 5.3749924 -2.8861084 7.841797 -2.9033585c2.4668045 -0.017250061 5.7991867 2.3332214 6.9590225 2.7998657" fill-rule="evenodd"/><path fill="#000000" fill-opacity="0.0" d="m65.42782 24.866142c1.3069687 -0.48389435 5.375 -2.8861084 7.8418045 -2.9033585c2.4667969 -0.017248154 5.7991867 2.3332176 6.9590225 2.799862" fill-rule="evenodd"/><path stroke="#ad8c6f" stroke-width="2.0" stroke-linejoin="round" stroke-linecap="butt" d="m65.42782 24.866142c1.3069687 -0.48389435 5.375 -2.8861084 7.8418045 -2.9033585c2.4667969 -0.017248154 5.7991867 2.3332176 6.9590225 2.799862" fill-rule="evenodd"/><path fill="#000000" fill-opacity="0.0" d="m64.47769 162.79002c1.3069687 -0.48388672 5.3749924 -2.8861084 7.841797 -2.9033508c2.4668045 -0.01725769 5.7991867 2.3332062 6.9590225 2.7998505" fill-rule="evenodd"/><path stroke="#ad8c6f" stroke-width="2.0" stroke-linejoin="round" stroke-linecap="butt" d="m64.47769 162.79002c1.3069687 -0.48388672 5.3749924 -2.8861084 7.841797 -2.9033508c2.4668045 -0.01725769 5.7991867 2.3332062 6.9590225 2.7998505" fill-rule="evenodd"/><path fill="#000000" fill-opacity="0.0" d="m33.727436 80.703415c1.0773163 -0.48389435 4.4305534 -2.8861084 6.463917 -2.9033585c2.0333595 -0.017250061 4.7802124 2.3332138 5.7362556 2.799858" fill-rule="evenodd"/><path stroke="#ad8c6f" stroke-width="2.0" stroke-linejoin="round" stroke-linecap="butt" d="m33.727436 80.703415c1.0773163 -0.48389435 4.4305534 -2.8861084 6.463917 -2.9033585c2.0333595 -0.017250061 4.7802124 2.3332138 5.7362556 2.799858" fill-rule="evenodd"/><path fill="#000000" fill-opacity="0.0" d="m34.16838 137.2441c1.0773163 -0.48388672 4.4305534 -2.8861084 6.463917 -2.9033508c2.0333595 -0.01725769 4.7802124 2.3332062 5.7362556 2.7998505" fill-rule="evenodd"/><path stroke="#ad8c6f" stroke-width="2.0" stroke-linejoin="round" stroke-linecap="butt" d="m34.16838 137.2441c1.0773163 -0.48388672 4.4305534 -2.8861084 6.463917 -2.9033508c2.0333595 -0.01725769 4.7802124 2.3332062 5.7362556 2.7998505" fill-rule="evenodd"/><path fill="#000000" fill-opacity="0.0" d="m33.810112 17.73491c1.0773201 -0.48389435 4.4305534 -2.8861094 6.463917 -2.9033585c2.0333633 -0.017249107 4.7802124 2.3332176 5.7362556 2.799862" fill-rule="evenodd"/><path stroke="#ad8c6f" stroke-width="2.0" stroke-linejoin="round" stroke-linecap="butt" d="m33.810112 17.73491c1.0773201 -0.48389435 4.4305534 -2.8861094 6.463917 -2.9033585c2.0333633 -0.017249107 4.7802124 2.3332176 5.7362556 2.799862" fill-rule="evenodd"/><path fill="#000000" fill-opacity="0.0" d="m80.009186 144.48819c1.3069687 -0.48388672 5.3749924 -2.8861084 7.841797 -2.9033508c2.4668045 -0.01725769 5.7991867 2.3332062 6.9590225 2.7998505" fill-rule="evenodd"/><path stroke="#ad8c6f" stroke-width="2.0" stroke-linejoin="round" stroke-linecap="butt" d="m80.009186 144.48819c1.3069687 -0.48388672 5.3749924 -2.8861084 7.841797 -2.9033508c2.4668045 -0.01725769 5.7991867 2.3332062 6.9590225 2.7998505" fill-rule="evenodd"/><path fill="#000000" fill-opacity="0.0" d="m80.21654 75.808395c1.306961 -0.48388672 5.3749924 -2.8861008 7.841797 -2.9033508c2.4668045 -0.017250061 5.7991867 2.3332138 6.9590225 2.799858" fill-rule="evenodd"/><path stroke="#ad8c6f" stroke-width="2.0" stroke-linejoin="round" stroke-linecap="butt" d="m80.21654 75.808395c1.306961 -0.48388672 5.3749924 -2.8861008 7.841797 -2.9033508c2.4668045 -0.017250061 5.7991867 2.3332138 6.9590225 2.799858" fill-rule="evenodd"/><path fill="#000000" fill-opacity="0.0" d="m80.00787 4.4960628c1.3069687 -0.48389244 5.3749924 -2.886108 7.841797 -2.9033573c2.4668045 -0.017249346 5.7991867 2.3332179 6.9590225 2.7998617" fill-rule="evenodd"/><path stroke="#ad8c6f" stroke-width="2.0" stroke-linejoin="round" stroke-linecap="butt" d="m80.00787 4.4960628c1.3069687 -0.48389244 5.3749924 -2.886108 7.841797 -2.9033573c2.4668045 -0.017249346 5.7991867 2.3332179 6.9590225 2.7998617" fill-rule="evenodd"/><path fill="#000000" fill-opacity="0.0" d="m147.0812 40.874016c1.6516418 -0.48389435 6.7924957 -2.8861084 9.909851 -2.9033585c3.1173553 -0.017250061 7.3285675 2.3332176 8.794281 2.799862" fill-rule="evenodd"/><path stroke="#ad8c6f" stroke-width="2.0" stroke-linejoin="round" stroke-linecap="butt" d="m147.0812 40.874016c1.6516418 -0.48389435 6.7924957 -2.8861084 9.909851 -2.9033585c3.1173553 -0.017250061 7.3285675 2.3332176 8.794281 2.799862" fill-rule="evenodd"/><path fill="#000000" fill-opacity="0.0" d="m147.0812 135.33333c1.6516418 -0.48388672 6.7924957 -2.8861084 9.909851 -2.9033508c3.1173553 -0.01725769 7.3285675 2.3332214 8.794281 2.7998657" fill-rule="evenodd"/><path stroke="#ad8c6f" stroke-width="2.0" stroke-linejoin="round" stroke-linecap="butt" d="m147.0812 135.33333c1.6516418 -0.48388672 6.7924957 -2.8861084 9.909851 -2.9033508c3.1173553 -0.01725769 7.3285675 2.3332214 8.794281 2.7998657" fill-rule="evenodd"/><path fill="#000000" fill-opacity="0.0" d="m1.1889764 -1.6850394l0 189.10237" fill-rule="evenodd"/><path stroke="#ad8c6f" stroke-width="3.0" stroke-linejoin="round" stroke-linecap="butt" d="m1.1889764 -1.6850394l0 189.10237" fill-rule="evenodd"/><path fill="#000000" fill-opacity="0.0" d="m1.0004003 94.3189c1.0773196 -0.48389435 4.4305553 -2.8861084 6.4639177 -2.9033585c2.033362 -0.017250061 4.780212 2.3332138 5.736255 2.799858" fill-rule="evenodd"/><path stroke="#ad8c6f" stroke-width="2.0" stroke-linejoin="round" stroke-linecap="butt" d="m1.0004003 94.3189c1.0773196 -0.48389435 4.4305553 -2.8861084 6.4639177 -2.9033585c2.033362 -0.017250061 4.780212 2.3332138 5.736255 2.799858" fill-rule="evenodd"/><path fill="#000000" fill-opacity="0.0" d="m1.0004003 163.41208c1.0773196 -0.48390198 4.4305553 -2.8861084 6.4639177 -2.903366c2.033362 -0.017242432 4.780212 2.3332214 5.736255 2.7998657" fill-rule="evenodd"/><path stroke="#ad8c6f" stroke-width="2.0" stroke-linejoin="round" stroke-linecap="butt" d="m1.0004003 163.41208c1.0773196 -0.48390198 4.4305553 -2.8861084 6.4639177 -2.903366c2.033362 -0.017242432 4.780212 2.3332214 5.736255 2.7998657" fill-rule="evenodd"/><path fill="#000000" fill-opacity="0.0" d="m1.0004003 7.4015746c1.0773196 -0.48389292 4.4305553 -2.886108 6.4639177 -2.9033575c2.033362 -0.017249107 4.780212 2.333218 5.736255 2.7998614" fill-rule="evenodd"/><path stroke="#ad8c6f" stroke-width="2.0" stroke-linejoin="round" stroke-linecap="butt" d="m1.0004003 7.4015746c1.0773196 -0.48389292 4.4305553 -2.886108 6.4639177 -2.9033575c2.033362 -0.017249107 4.780212 2.333218 5.736255 2.7998614" fill-rule="evenodd"/><path fill="#000000" fill-opacity="0.0" d="m114.37123 9.444881c1.6516418 -0.48389244 6.7924957 -2.886108 9.909851 -2.903357c3.1173553 -0.017249107 7.3285675 2.333218 8.794281 2.7998614" fill-rule="evenodd"/><path stroke="#ad8c6f" stroke-width="2.0" stroke-linejoin="round" stroke-linecap="butt" d="m114.37123 9.444881c1.6516418 -0.48389244 6.7924957 -2.886108 9.909851 -2.903357c3.1173553 -0.017249107 7.3285675 2.333218 8.794281 2.7998614" fill-rule="evenodd"/></g></svg>