<?xml version="1.0" encoding="UTF-8"?>
<svg id="Layer_2" data-name="Layer 2" xmlns="http://www.w3.org/2000/svg" viewBox="0 0 624.33 954">
  <defs>
    <style>
      .cls-1 {
        fill: #64c6c2;
      }

      .cls-1, .cls-2 {
        stroke: #000;
        stroke-width: 3px;
      }

      .cls-1, .cls-2, .cls-3 {
        stroke-miterlimit: 10;
      }

      .cls-2 {
        fill: #b9529f;
      }

      .cls-3 {
        fill: none;
        stroke: #64be6b;
        stroke-width: 16px;
      }
    </style>
  </defs>
  <g id="Layer_8" data-name="Layer 8">
    <g>
      <path class="cls-1" d="m158.87,210.51c8.29,28.49,17.92,55.41,28.46,80.14-13.78-25.79-31.18-52.89-51.77-79.84-23.87-31.25-49.26-58.72-74.14-81.09-2.33-2.1-4.65-4.14-6.96-6.15-5.74-27.37-7.83-51.71-6.06-71.22,12.68,8.34,26.04,19.98,39.53,34.4.09.1.18.2.27.3,20.32,21.77,40.93,49.82,59.98,82.34.09.39.18.78.27,1.17,3.04,13.13,6.51,26.47,10.43,39.95Z"/>
      <g>
        <path class="cls-3" d="m217.21,953.69c-11.54-296.92,1.93-538.07,30.12-539.16"/>
        <g>
          <path class="cls-1" d="m247.68,205.5c12.78,44.24,20.78,86.95,24.16,125.06-7.9,4.45-15.56,8.96-22.96,13.52-.26.15-.54.33-.8.49-.76.48-1.52.95-2.28,1.43-8.88,5.52-17.36,11.12-25.42,16.76-.65.46-1.31.9-1.96,1.37-2.62-4.83-5.22-9.83-7.8-14.97-.17-.33-.33-.66-.5-.99-6.73-13.51-13.26-28-19.47-43.32-9.43-23.22-18.16-48.34-25.8-74.81-3.88-13.43-7.33-26.71-10.37-39.76-11.42-48.99-16.95-94.72-16.8-132.62.08-20.87,1.89-39.36,5.4-54.73,24.37,23.3,49.52,62.26,71.38,111.15,12.37,27.66,23.69,58.49,33.21,91.44Z"/>
          <path class="cls-2" d="m621.64,232.96c-1.36,1.87-2.78,3.73-4.26,5.6-28.26,35.78-78.81,74.62-143.01,108.47-.03,0-.05.04-.08.05-30.36,17.11-65.03,34.43-102.44,50.83-37.48,16.42-73.8,30.2-107.03,40.94-61.77,13.6-105.03,13.46-111.94-3.54-.8-2-1.09-4.18-.89-6.53,1.23-.75,2.47-1.51,3.73-2.25-.88-.13-1.75-.25-2.61-.4,5.43-7.05,11.81-14.26,19.09-21.56,8.82-8.86,18.95-17.85,30.24-26.87.94-.75,1.91-1.51,2.87-2.27,5.66-4.44,11.62-8.89,17.84-13.32.5-.37,1.01-.73,1.52-1.09.39-.28.8-.56,1.2-.85.68-.47,1.36-.96,2.05-1.43.66-.47,1.33-.92,1.99-1.38,8.21-5.69,16.85-11.32,25.89-16.9.77-.48,1.54-.96,2.32-1.44.27-.16.55-.34.82-.49,7.53-4.59,15.33-9.14,23.37-13.64,7.34-4.11,14.88-8.15,22.62-12.14,1.23-.62,2.48-1.26,3.73-1.89,4.08-2.08,8.23-4.13,12.41-6.17,7.55-3.68,15.25-7.28,23.1-10.81,7.79-3.49,15.72-6.9,23.78-10.24,99.69-41.2,194.59-58.69,253.67-50.7Z"/>
          <path class="cls-1" d="m216.42,365.53c-.39.28-.79.56-1.18.84-.5.36-1,.72-1.49,1.08-6.11,4.39-11.96,8.82-17.51,13.23-2.14,1.13-4.26,2.27-6.34,3.4-2.65-2.07-5.33-4.22-8.02-6.47-30.85-25.62-64.71-62.49-96.2-106.61C37.93,204.13,7.58,137.36,1.84,93.09c20.31,9.48,43.77,26.53,68.09,49.49,2.1,1.98,4.2,4,6.31,6.08,22.56,22.11,45.69,49.12,67.54,79.73,18.47,25.87,34.23,51.79,46.88,76.45.26.5.52,1.02.78,1.52,5.83,14.18,11.92,27.63,18.2,40.23.33.87.67,1.72,1,2.57,2.14,5.59,4.07,11.06,5.78,16.38Z"/>
          <path class="cls-1" d="m297.62,202.61c7.78,38.46,11.78,75.29,12.3,107.95-4.11,2.02-8.18,4.05-12.19,6.11-1.23.62-2.45,1.25-3.66,1.87-7.6,3.95-15.01,7.95-22.22,12.02-3.38-38.1-11.38-80.82-24.16-125.06-9.52-32.95-20.84-63.78-33.21-91.44-1.34-37.72,1.7-70.1,8.69-93.35,29.48,34.24,58.2,101.6,74.45,181.9Z"/>
          <path class="cls-1" d="m137.69,57.64c-.16,37.91,5.38,83.63,16.8,132.62-17.68-31.86-36.67-59.41-55.24-80.87-5.82-42.06-5.88-78.6-.33-104.63,12.9,12.72,26.11,30.75,38.78,52.87Z"/>
        </g>
      </g>
    </g>
  </g>
</svg>