<?xml version="1.0" encoding="UTF-8"?>
<svg id="Layer_2" data-name="Layer 2" xmlns="http://www.w3.org/2000/svg" viewBox="0 0 361.29 485.43">
  <defs>
    <style>
      .cls-1 {
        fill: #b9529f;
      }

      .cls-1, .cls-2, .cls-3, .cls-4, .cls-5, .cls-6 {
        stroke: #050606;
        stroke-miterlimit: 10;
        stroke-width: 2px;
      }

      .cls-2 {
        fill: #f08521;
      }

      .cls-3 {
        fill: #64c6c2;
      }

      .cls-4 {
        fill: #faf394;
      }

      .cls-5 {
        fill: #6fccdd;
      }

      .cls-6 {
        fill: none;
      }
    </style>
  </defs>
  <g id="Layer_5" data-name="Layer 5">
    <g>
      <path class="cls-3" d="m222.86,279.96l49.28,184.92c.37,1.38-.55,2.77-1.96,2.97l-42.95,6.35c-1.41.21-2.69-.86-2.73-2.28l-6.34-191.27c-.09-2.84,3.96-3.44,4.69-.69Z"/>
      <path class="cls-3" d="m231.78,276.42l127.97,156.56c.9,1.1.64,2.73-.54,3.51l-36.4,23.72c-1.19.77-2.79.35-3.43-.92l-91.58-180.28c-1.29-2.55,2.17-4.8,3.97-2.59Z"/>
      <path class="cls-5" d="m226.62,277.06l95.24,188.39c.64,1.26.04,2.8-1.28,3.31l-40.61,15.51c-1.32.5-2.79-.24-3.16-1.61l-54.63-203.9c-.74-2.77,3.14-4.25,4.43-1.69Z"/>
    </g>
    <g>
      <g>
        <path class="cls-2" d="m76.47,73.14c.17-.01.34-.02.51-.02v.02c-.37.01-.74.03-1.12.05-.55-.34-1.1-.66-1.67-.96-.44-.24-.89-.48-1.35-.71-.14-.07-.29-.15-.44-.22-.46-.23-.92-.44-1.4-.65-.51-.24-1.04-.46-1.57-.68-.14-.06-.28-.11-.42-.17-.38-.16-.76-.31-1.15-.44-.26-.11-.53-.2-.8-.29-.17-.07-.34-.13-.51-.18-.45-.17-.9-.32-1.36-.46-.03-.01-.06-.02-.1-.03-.53-.17-1.07-.32-1.61-.48-.43-.12-.86-.23-1.3-.35-.29-.08-.59-.16-.89-.22-.37-.09-.74-.18-1.11-.26-.36-.09-.72-.16-1.08-.24-.4-.08-.79-.16-1.19-.23-.38-.08-.77-.15-1.16-.2-.77-.14-1.55-.26-2.34-.36-.67-.1-1.35-.18-2.03-.24-.19-.02-.38-.04-.57-.06-.32-.03-.64-.06-.96-.09h-.03c-.57-.05-1.14-.09-1.71-.12-.66-.05-1.32-.07-1.98-.09-.13-.01-.27-.01-.4-.01-.69-.03-1.38-.04-2.08-.04-1,0-2,.02-3.01.06-4.19.16-8.47.66-12.81,1.52-.66.14-1.31.27-1.95.42-.65.14-1.29.3-1.93.46-.63.16-1.27.32-1.89.5-.06.02-.13.03-.19.05-1.19.32-2.35.69-3.5,1.07-.43.14-.86.28-1.28.43-.26.09-.51.18-.77.27-1.21.44-2.39.9-3.55,1.39-.41.17-.82.35-1.22.53-.05.02-.09.04-.14.06-.37.17-.74.34-1.11.51-.31.14-.62.29-.93.44-1.23.6-2.42,1.22-3.58,1.87-.48.27-.95.53-1.41.82-.3.17-.59.34-.88.52-.35.22-.7.45-1.04.67-.58.37-1.15.75-1.71,1.14-1.11-2.86-1.05-6.14.6-9.24l2.44-4.08-2.08,3.57c-.08.14-.16.27-.23.41l17.58-29.47.71-1.18,4.5-7.53c1.73-2.51,3.62-4.86,5.65-7.08,12.2,2.09,24.11,8.16,33.07,17.83.91.98,1.76,1.97,2.57,2.98,7.13,8.86,10.68,18.98,10.74,28.7-.28,0-.56.02-.85.04,0,.01.02.03.02.05Z"/>
        <path class="cls-6" d="m77.3,73.11v.03c-.46.02-.93.04-1.4.07-.01-.01-.03-.02-.04-.02.38-.02.75-.04,1.12-.05v-.02c.11,0,.21,0,.32,0Z"/>
        <path class="cls-6" d="m30.92,23.54c-2.03,2.22-3.92,4.57-5.65,7.08l-4.5,7.53-.71,1.18L2.48,68.8c.07-.14.15-.27.23-.41l2.08-3.57.24-.42,14.9-24.97.71-1.18,4.5-7.54c1.76-2.53,3.68-4.93,5.74-7.18.01,0,.03,0,.04.01Z"/>
        <path class="cls-6" d="m77.3,73.05v.06c-.11,0-.21,0-.32,0-.17,0-.34.01-.51.02,0-.02-.01-.04-.02-.05.29-.02.57-.03.85-.04Z"/>
        <path class="cls-4" d="m137.21,54.32s-.03.12-.04.17c-.46.73-.95,1.42-1.5,2.07-1.84,6.15-5.82,11.57-11.95,15.53-3.09,2-6.52,3.5-10.2,4.5-.15.06-.31.1-.47.13-.14.04-.28.08-.42.11-.04.01-.07.02-.11.03-7.73,1.74-16.35,1.46-24.87-.67-3.17-.78-6.32-1.83-9.41-3.12-.1,0-.2.01-.3.01-.15.01-.3.01-.45.02-.06,0-.13,0-.19.01v-.06s.09-.01.13-.01c-.04-9.68-3.54-19.77-10.59-28.61-.86-1.07-1.76-2.12-2.72-3.15-8.97-9.69-20.9-15.75-33.11-17.85-.03.04-.06.07-.09.11-.01-.01-.03-.01-.04-.01-2.06,2.25-3.98,4.65-5.74,7.18l-4.5,7.54-.71,1.18-14.9,24.97,7.78-13.38,6.41-10.92.21-.36,4.83-8.22c1.71-2.48,3.57-4.83,5.56-7.05,6.58-7.33,14.58-13.13,23.3-17.14l.06.1c.12-.09.25-.19.38-.3C69.59-.12,87.97-1.27,104.24,5.46c4.81,1.98,9.14,4.55,12.97,7.58,12.67,9.98,19.77,25.05,20,41.28Z"/>
        <path class="cls-6" d="m30.92,23.54c-2.03,2.22-3.92,4.57-5.65,7.08l-4.5,7.53-.71,1.18L2.48,68.8c.07-.14.15-.27.23-.41l2.08-3.57.24-.42,14.9-24.97.71-1.18,4.5-7.54c1.76-2.53,3.68-4.93,5.74-7.18.01,0,.03,0,.04.01Z"/>
        <path class="cls-6" d="m77.3,73.05v.06c-.11,0-.21,0-.32,0-.17,0-.34.01-.51.02,0-.02-.01-.04-.02-.05.29-.02.57-.03.85-.04Z"/>
        <path class="cls-6" d="m137.17,54.49c-.09.41-.2.82-.3,1.22-.25.87-.53,1.73-.85,2.57-.13.34-.27.68-.42,1.01-.06.15-.12.29-.19.44,0,.01-.01.03-.02.04-.13.3-.27.59-.42.89-.17.35-.36.69-.55,1.03-.08.15-.16.29-.25.43-.22.4-.46.79-.72,1.18-.12.2-.26.4-.39.59-.11.16-.23.32-.34.47-.13.18-.26.36-.4.54,0,.01-.01.02-.03.03-.15.2-.29.39-.46.58-.08.12-.18.25-.29.36-.14.18-.29.36-.45.53-.28.33-.57.65-.88.96-.29.31-.59.61-.91.91-.38.37-.78.73-1.2,1.08-.31.27-.63.53-.95.78-.38.3-.77.6-1.17.88-.4.29-.81.57-1.23.84-.97.62-1.97,1.2-3,1.72-.35.18-.7.35-1.05.51-.28.13-.57.27-.86.39-2.28,1.01-4.7,1.8-7.21,2.37-.04.01-.07.02-.11.02.04-.01.07-.02.11-.03.07-.02.14-.03.21-.05.07-.01.14-.03.21-.06.16-.03.32-.07.47-.13,3.68-1,7.11-2.5,10.2-4.5,6.13-3.96,10.11-9.38,11.95-15.53.55-.65,1.04-1.34,1.5-2.07Z"/>
      </g>
      <path class="cls-4" d="m230.36,272.8c-.31.23-.61.46-.93.67h-.01c-1.11.83-2.25,1.63-3.4,2.39-.05.03-.1.07-.15.1-.99.66-1.99,1.3-3.01,1.91,0,0-.01.01-.02.01-10.28,6.34-21.96,10.96-34.73,13.43-57.08,11.05-114.45-25.06-128.13-80.64-6.63-26.97-1.77-53.55,11.51-75.05,1.81-10.83,4.9-20.63,8.96-28.8-1.22-4.34-2.18-8.98-2.87-13.87-.8-5.64-1.23-11.6-1.23-17.77,0-.61,0-1.22.01-1.83.25-.02.5-.03.75-.04.29.12.59.24.89.37,2.81,1.13,5.67,2.04,8.54,2.75,8.93,2.23,17.97,2.44,25.98.43.04,0,.07-.01.11-.02,2.51-.57,4.93-1.36,7.21-2.37.29-.12.58-.26.86-.39.35-.16.7-.33,1.05-.51,1.03-.52,2.03-1.1,3-1.72.42-.27.83-.55,1.23-.84.4-.28.79-.58,1.17-.88.32-.25.64-.51.95-.78.42-.35.82-.71,1.2-1.08.32-.3.62-.6.91-.91.31-.31.6-.63.88-.96.16-.17.31-.35.45-.53.11-.11.21-.24.29-.36.17-.19.31-.38.46-.58.02-.01.03-.02.03-.03.14-.17.28-.36.4-.54.11-.15.23-.31.34-.47.13-.19.27-.39.39-.59.26-.39.5-.78.72-1.18.09-.14.17-.28.25-.43.19-.34.38-.68.55-1.03.15-.3.29-.59.42-.89.01-.01.02-.03.02-.04.07-.15.13-.29.19-.44.15-.33.29-.67.42-1.01.32-.84.6-1.7.85-2.57.1-.4.21-.81.3-1.22.16-.26.32-.52.47-.79,1.18,6.73,1.82,13.95,1.82,21.48,0,2.29-.06,4.55-.18,6.77-.91-.09-1.8-.12-2.67-.1-.03-.01-.05-.01-.08,0-1.2.02-2.36.16-3.47.39-7.55-.26-14.95,5.52-20.8,17.68-.52,1.09-1.03,2.23-1.52,3.39-.3.72-.59,1.45-.87,2.19-.73,1.89-1.4,3.85-2.02,5.88.08.63.22,1.28.43,1.95,1.3,4.4,5.19,9.79,11,15.4,3.65,3.52,8.05,7.13,13.04,10.64,3.31,2.33,6.88,4.61,10.66,6.79.74.43,1.48.85,2.22,1.25.69.39,1.38.76,2.06,1.12.48.26.95.51,1.42.75.5.26,1,.52,1.5.77.53.27,1.07.54,1.6.8,1.18.57,2.35,1.12,3.5,1.64.39.18.77.35,1.15.52.65.29,1.29.56,1.94.83.49.21.98.41,1.47.61,1,.41,1.99.79,2.96,1.15.5.19.99.37,1.47.54.15.05.29.1.44.15.58.21,1.15.4,1.72.59.1.03.2.07.31.1.6.2,1.21.39,1.8.57.06.02.13.04.19.06.13.04.27.08.4.12.98.29,1.94.55,2.87.79.33.09.66.17.98.25,2.41.59,4.68,1.01,6.79,1.25.19.03.39.05.58.07,2.04.22,3.91.26,5.58.13.63-.05,1.24-.12,1.81-.22,3.03-.51,5.22-1.71,6.33-3.64.13-.22.24-.44.33-.68l.34.76,16.68,38.02,11.15,25.39,5.64,12.87.02.04,3.12,7.12c6.28,14.31,5.21,26.54-.99,32.92Z"/>
      <path class="cls-6" d="m113.52,76.59c2.2-.53,4.31-1.24,6.32-2.12-2.28,1.01-4.7,1.8-7.21,2.37-.04.01-.07.02-.11.02.04-.01.07-.02.11-.03.07-.02.14-.03.21-.05.07-.01.14-.03.21-.06.16-.03.32-.07.47-.13Z"/>
      <path class="cls-6" d="m125.98,71.01c-.4.29-.81.57-1.23.84-.97.62-1.97,1.2-3,1.72,1.03-.53,2.03-1.11,3-1.73.42-.27.83-.55,1.23-.83Z"/>
      <path class="cls-6" d="m137.17,54.49c-.09.41-.2.82-.3,1.22-.25.87-.53,1.73-.85,2.57-.13.34-.27.68-.42,1.01-.06.15-.12.29-.19.44,0,.01-.01.03-.02.04-.13.3-.27.59-.42.89-.17.35-.36.69-.55,1.03-.08.15-.16.29-.25.43-.22.4-.46.79-.72,1.18-.12.2-.26.4-.39.59-.11.16-.23.32-.34.47-.13.18-.26.36-.4.54,0,.01-.01.02-.03.03-.15.2-.29.39-.46.58-.08.12-.18.25-.29.36-.14.18-.29.36-.45.53-.28.33-.57.65-.88.96-.29.31-.59.61-.91.91-.38.37-.78.73-1.2,1.08-.31.27-.63.53-.95.78-.38.3-.77.6-1.17.88-.4.29-.81.57-1.23.84-.97.62-1.97,1.2-3,1.72-.35.18-.7.35-1.05.51-.28.13-.57.27-.86.39-2.28,1.01-4.7,1.8-7.21,2.37.07-.02.14-.04.21-.06.07-.01.14-.03.21-.06.16-.03.32-.07.47-.13,3.68-1,7.11-2.5,10.2-4.5,6.13-3.96,10.11-9.38,11.95-15.53.55-.65,1.04-1.34,1.5-2.07Z"/>
    </g>
    <g>
      <path class="cls-3" d="m195.17,154.91c-.09.24-.2.46-.33.68-1.11,1.93-3.3,3.13-6.33,3.64-.57.1-1.18.17-1.81.22-1.67.13-3.54.09-5.58-.13-.19-.02-.39-.04-.58-.07-2.11-.24-4.38-.66-6.79-1.25-.32-.08-.65-.16-.98-.25-.93-.24-1.89-.5-2.87-.79-.13-.04-.27-.08-.4-.12-.06-.02-.13-.04-.19-.06-.59-.18-1.2-.37-1.8-.57-.11-.03-.21-.07-.31-.1-.57-.19-1.14-.38-1.72-.59-.15-.05-.29-.1-.44-.15-.48-.17-.97-.35-1.47-.54-.97-.36-1.96-.74-2.96-1.15-.49-.2-.98-.4-1.47-.61-.65-.27-1.29-.54-1.94-.83-.38-.17-.76-.34-1.15-.52-1.15-.52-2.32-1.07-3.5-1.64-.53-.26-1.07-.53-1.6-.8-.5-.25-1-.51-1.5-.77-.47-.24-.94-.49-1.42-.75-.68-.36-1.37-.73-2.06-1.12-.74-.4-1.48-.82-2.22-1.25-3.78-2.18-7.35-4.46-10.66-6.79-4.99-3.51-9.39-7.12-13.04-10.64-5.81-5.61-9.7-11-11-15.4-.21-.67-.35-1.32-.43-1.95.62-2.03,1.29-3.99,2.02-5.88.28-.74.57-1.47.87-2.19.49-1.16,1-2.3,1.52-3.39,5.85-12.16,13.25-17.94,20.8-17.68,1.11-.23,2.27-.37,3.47-.39.03-.01.05-.01.08,0,.87-.02,1.76.01,2.67.1,13.64,1.2,31.09,13.87,39.96,34.1l5.65,12.89,6.81,15.51,3,6.85c.32,1.63.24,3.11-.3,4.38Z"/>
      <path class="cls-2" d="m230.04,272.89c-.86.95-1.82,1.79-2.88,2.49-.53.35-1.08.67-1.65.95-2.16,1.07-4.65,1.66-7.42,1.68-2.58.01-5.4-.47-8.44-1.5l-15.89-5.38c-3.52-12.02-7.05-25.36-10.38-39.47-6.82-28.87-11.48-55.25-13.42-74.05,1.03.33,2.05.63,3.03.9.33.1.66.18.99.27,2.43.64,4.72,1.1,6.85,1.36.19.04.4.06.59.08,1.97.22,3.78.28,5.41.15.7-.04,1.37-.12,2-.24,3.08-.54,5.31-1.85,6.44-3.98.83-1.53,1.02-3.41.64-5.51l15.01,36.89,11.26,27.67,8.86,21.82c6.35,15.59,5.27,28.92-1,35.87Z"/>
      <path class="cls-1" d="m193.76,271.13l-7.78-2.63-6.29-2.14-17.48-5.93-1.6-.54c-1.24-8.16-2.42-16.69-3.51-25.47-3.82-30.68-5.89-58.64-6.14-79.03-.02-1.82-.02-3.57,0-5.26-.01-.28,0-.57,0-.85.54.29,1.08.59,1.62.87,1.19.62,2.37,1.22,3.53,1.79.39.19.78.38,1.16.56.66.32,1.3.62,1.96.91.5.23.99.45,1.49.66,1.01.45,2.01.86,2.98,1.26.51.2,1,.4,1.49.59.15.05.29.1.44.16.59.23,1.17.43,1.74.64.1.03.2.08.31.11.61.22,1.23.43,1.82.62.06.02.13.05.19.07.09.03.19.06.28.09,1.94,18.8,6.6,45.18,13.42,74.05,3.33,14.11,6.86,27.45,10.38,39.47Z"/>
      <path class="cls-2" d="m160.52,259.78l-.63-.22c-6.3-3.06-12.46-6.91-18.32-11.39-1.45-1.1-2.87-2.25-4.28-3.43-.82-8.13-1.56-16.63-2.2-25.38-2.33-31.69-2.93-60.4-2-80.75,3.31,2.52,6.88,4.98,10.66,7.33.74.46,1.48.92,2.22,1.35.69.42,1.38.82,2.06,1.21.48.28.95.55,1.42.81.5.28,1,.56,1.5.83-.15,20.54,1.91,50.84,6.09,84.39,1.08,8.71,2.25,17.16,3.48,25.25Z"/>
      <path class="cls-5" d="m137.29,245.2c-7.79-6.5-14.94-14.09-21.06-22.29h.17c2.01,0,3.65-1.77,3.65-3.93v-91.02c3.65,3.79,8.05,7.68,13.04,11.45-.93,20.29-.33,48.9,2,80.49.64,8.72,1.38,17.19,2.2,25.3Z"/>
      <path class="cls-1" d="m120.05,128.94v89.9c0,2.14-1.64,3.88-3.65,3.88h-.17c-1.21-1.58-2.37-3.2-3.49-4.83-.12-.3-.23-.61-.34-.91-1.42-3.99-2.68-8.18-3.78-12.51-.55-2.16-1.06-4.36-1.52-6.58-4.63-21.95-5.43-46.85-2.43-68.33.64-4.57,1.45-8.97,2.43-13.17.19-.86.4-1.7.62-2.54h0c.34-.54.8-.98,1.33-1.28,1.3,4.68,5.19,10.41,11,16.37Z"/>
      <path class="cls-5" d="m230.04,272.89c-.86.95-1.82,1.79-2.88,2.49-8.62-6.45-21.62-35.86-31.43-72.48-4.13-15.44-7.13-30.05-8.9-42.53.7-.04,1.37-.12,2-.24,3.08-.54,5.31-1.85,6.44-3.98.83-1.53,1.02-3.41.64-5.51l15.01,36.89,11.26,27.67,8.86,21.82c6.35,15.59,5.27,28.92-1,35.87Z"/>
    </g>
    <path class="cls-6" d="m77.3,73.05v.06c-.28,0-.55,0-.83.03,0-.02-.01-.04-.02-.05.29-.02.57-.03.85-.04Z"/>
    <path class="cls-6" d="m77.43,73.04s-.09,0-.13.01c-.06-9.72-3.61-19.84-10.74-28.7.09.02.19.05.28.08,7.05,8.84,10.55,18.93,10.59,28.61Z"/>
    <path class="cls-2" d="m75.85,75.18c0,6.17.51,12.13,1.46,17.77-4.03,6.06-13.55,8.98-21.69,5.03l-35.55-17.25c-4.16-2.01-6.65-5.19-7.52-8.62.4-.18.81-.36,1.22-.53,1.16-.49,2.34-.95,3.55-1.39.26-.09.51-.18.77-.27.42-.15.85-.29,1.28-.43,1.15-.38,2.31-.75,3.5-1.07.06-.02.13-.03.19-.05.62-.18,1.26-.34,1.89-.5.64-.16,1.28-.32,1.93-.46.64-.15,1.29-.28,1.95-.42,4.34-.86,8.62-1.36,12.81-1.52.6.02,1.2.04,1.8.08.68.03,1.35.07,2.03.12h.04c.38.03.76.06,1.14.09.23.02.45.04.68.06.81.06,1.62.14,2.41.24.94.1,1.87.22,2.79.36.46.05.93.12,1.38.2.47.07.94.15,1.41.23.43.08.86.15,1.29.24.44.08.88.17,1.32.26.36.06.71.14,1.06.22.52.12,1.03.23,1.54.35.65.16,1.29.31,1.92.48.05.01.08.02.12.03.55.14,1.08.29,1.62.46.2.05.4.11.6.18.33.09.65.18.96.29.46.13.91.28,1.36.44.17.06.34.11.5.17.63.22,1.27.44,1.87.68.57.21,1.12.42,1.67.65.18.07.35.15.52.22.55.23,1.08.47,1.61.71.69.31,1.37.64,2.03.98.18-.01.37-.02.55-.02.38-.02.75-.04,1.12-.05v-.03c.07-.01.15-.01.22-.01h.1c.15-.01.29-.01.44-.02h0s.06.52.06.52v.08c-.33-.12-.67-.24-1-.35-.02-.01-.03-.01-.05-.02-.3.01-.59.02-.89.04-.01.61-.01,1.22-.01,1.83Z"/>
  </g>
</svg>