<?xml version="1.0" encoding="UTF-8"?>
<svg id="Layer_2" data-name="Layer 2" xmlns="http://www.w3.org/2000/svg" viewBox="0 0 553.59 974.34">
  <defs>
    <style>
      .cls-1 {
        fill: #64c6c2;
      }

      .cls-1, .cls-2 {
        stroke: #000;
        stroke-width: 3px;
      }

      .cls-1, .cls-2, .cls-3 {
        stroke-miterlimit: 10;
      }

      .cls-2 {
        fill: #b9529f;
      }

      .cls-3 {
        fill: none;
        stroke: #64be6b;
        stroke-width: 16px;
      }
    </style>
  </defs>
  <g id="Layer_8" data-name="Layer 8">
    <g>
      <path class="cls-1" d="m120.06,228.77c0,27.94,1.5,54.82,4.28,79.96-5.22-26.95-13.14-56.03-23.74-85.82-12.29-34.54-26.76-66.06-42.04-92.84-1.43-2.51-2.86-4.97-4.3-7.39,1.85-26.26,6-48.82,12.19-66,8.53,10.88,16.82,24.92,24.55,41.51.05.11.1.23.15.34,11.63,25.03,21.99,55.82,29.96,90.24-.02.38-.04.75-.06,1.13-.65,12.67-.99,25.65-.99,38.87Z"/>
      <g>
        <path class="cls-3" d="m79.11,974.03c-11.54-296.92,1.93-538.07,30.12-539.16"/>
        <path class="cls-1" d="m204.97,231.09c0,44.84-4.1,86.96-11.3,123.52-8.68,2.03-17.14,4.18-25.37,6.44-.29.07-.6.16-.89.24-.85.24-1.7.48-2.54.72-9.89,2.77-19.43,5.71-28.58,8.81-.74.25-1.48.49-2.22.75-1.16-5.23-2.25-10.61-3.28-16.11-.07-.35-.13-.71-.2-1.06-2.67-14.46-4.88-29.78-6.57-45.79-2.57-24.27-3.96-50.13-3.96-76.96,0-13.61.36-26.97,1.05-40,2.58-48.92,9.83-93.19,20.32-128.61,5.77-19.5,12.52-36.31,20.03-49.74,16.66,28.38,29.78,71.63,37.09,123.27,4.14,29.22,6.42,61.12,6.42,94.52Z"/>
        <path class="cls-2" d="m550.67,357.84c-1.79,1.38-3.64,2.74-5.55,4.09-36.45,25.84-94.8,48.51-164.66,62.83-.03,0-.06.02-.09.02-33.34,7.8-70.81,14.64-110.62,19.87-39.88,5.23-77.94,8.31-112.25,9.38-62.06-3.97-102.87-15.79-104.76-33.56-.21-2.09.11-4.2.95-6.35,1.36-.37,2.75-.74,4.14-1.1-.79-.36-1.59-.71-2.36-1.08,7.06-5.13,15.05-10.15,23.92-15.01,10.75-5.91,22.77-11.58,35.89-16.96,1.1-.45,2.22-.9,3.33-1.35,6.56-2.62,13.4-5.18,20.49-7.64.57-.21,1.15-.41,1.73-.61.45-.16.9-.31,1.36-.47.77-.26,1.55-.53,2.33-.78.75-.26,1.5-.5,2.26-.75,9.3-3.1,19-6.04,29.06-8.81.85-.24,1.72-.48,2.58-.72.29-.08.61-.17.91-.24,8.37-2.26,16.97-4.41,25.8-6.44,8.05-1.86,16.28-3.6,24.68-5.24,1.33-.25,2.68-.51,4.04-.76,4.42-.84,8.9-1.64,13.4-2.42,8.13-1.4,16.39-2.69,24.77-3.87,8.31-1.16,16.73-2.21,25.26-3.15,105.39-11.6,199.8-2.32,253.42,21.12Z"/>
        <path class="cls-1" d="m131.78,372.35c-.45.16-.9.31-1.34.47-.57.2-1.14.4-1.7.61-6.97,2.46-13.7,5.02-20.15,7.64-2.33.48-4.64.97-6.92,1.47-1.94-2.65-3.88-5.39-5.81-8.22-22.15-32.31-44.07-75.95-61.77-125.73C7.24,173.12-3.21,102.46,3.45,59.49c16.59,14.36,34.1,36.65,50.81,64.7,1.44,2.42,2.87,4.88,4.3,7.39,15.28,26.78,29.75,58.3,42.04,92.84,10.39,29.19,18.2,57.7,23.42,84.19.11.54.21,1.09.32,1.63,1.64,14.84,3.72,29.07,6.21,42.55.08.9.16,1.79.24,2.67.5,5.81.83,11.45.99,16.89Z"/>
        <path class="cls-1" d="m252.92,241.88c-3.14,38.08-9.42,73.62-17.83,104.31-4.43.78-8.83,1.58-13.18,2.42-1.33.25-2.66.51-3.97.76-8.26,1.64-16.35,3.38-24.27,5.24,7.2-36.56,11.3-78.68,11.3-123.52,0-33.4-2.28-65.3-6.42-94.52,9.03-35.65,20.73-65.12,33.68-84.98,18.5,40,27.25,110.78,20.69,190.29Z"/>
        <path class="cls-1" d="m141.43,63.04c-10.49,35.42-17.74,79.69-20.32,128.61-8.01-34.58-18.42-65.49-30.11-90.58,5.98-40.92,15.89-75.12,28.23-97.97,8.71,15.38,16.27,35.82,22.2,59.94Z"/>
      </g>
    </g>
  </g>
</svg>