<svg version="1.1" viewBox="0.0 0.0 623.0157480314961 834.9212598425197" fill="none" stroke="none" stroke-linecap="square" stroke-miterlimit="10" xmlns:xlink="http://www.w3.org/1999/xlink" xmlns="http://www.w3.org/2000/svg"><clipPath id="p.0"><path d="m0 0l623.01575 0l0 834.92126l-623.01575 0l0 -834.92126z" clip-rule="nonzero"/></clipPath><g clip-path="url(#p.0)"><path fill="#000000" fill-opacity="0.0" d="m0 0l623.01575 0l0 834.92126l-623.01575 0z" fill-rule="evenodd"/><path fill="#cfe2f3" d="m177.01837 637.14435l51.826767 -165.71652l51.826767 0l-103.653534 331.43307z" fill-rule="evenodd"/><path stroke="#000000" stroke-width="1.0" stroke-linejoin="round" stroke-linecap="butt" d="m177.01837 637.14435l51.826767 -165.71652l51.826767 0l-103.653534 331.43307z" fill-rule="evenodd"/><path fill="#cfe2f3" d="m205.39633 629.853l48.362198 -158.4252l48.362198 0l-96.724396 316.85037z" fill-rule="evenodd"/><path stroke="#000000" stroke-width="1.0" stroke-linejoin="round" stroke-linecap="butt" d="m205.39633 629.853l48.362198 -158.4252l48.362198 0l-96.724396 316.85037z" fill-rule="evenodd"/><path fill="#cfe2f3" d="m347.63242 240.7165l96.41699 23.247726l0 0c12.63089 3.0455322 9.0191345 62.959595 -8.067078 133.82181c-17.086212 70.86221 -41.176666 125.83853 -53.807556 122.793l-96.41699 -23.247742l0 0c-12.63089 -3.0455017 -9.0191345 -62.959564 8.067078 -133.82181c17.086212 -70.86221 41.176666 -125.8385 53.807556 -122.792984z" fill-rule="evenodd"/><path stroke="#000000" stroke-width="1.0" stroke-linejoin="round" stroke-linecap="butt" d="m347.63242 240.7165l96.41699 23.247726l0 0c12.63089 3.0455322 9.0191345 62.959595 -8.067078 133.82181c-17.086212 70.86221 -41.176666 125.83853 -53.807556 122.793l-96.41699 -23.247742l0 0c-12.63089 -3.0455017 -9.0191345 -62.959564 8.067078 -133.82181c17.086212 -70.86221 41.176666 -125.8385 53.807556 -122.792984z" fill-rule="evenodd"/><path fill="#cfe2f3" d="m368.71274 143.56818l0 0c14.359375 42.043213 21.057495 77.81813 14.960602 79.9055q-5.6719666 1.9419098 -10.626587 5.984131q-13.054108 -39.217438 -26.41278 -78.33058l0 0c-14.3594055 -42.04322 -21.057495 -77.81814 -14.960632 -79.90551l0 0c2.927826 -1.0023956 8.475037 6.0566635 15.421265 19.624252c6.946228 13.567596 14.722504 32.532333 21.618134 52.722206z" fill-rule="evenodd"/><path stroke="#000000" stroke-width="1.0" stroke-linejoin="round" stroke-linecap="butt" d="m368.71274 143.56818l0 0c14.359375 42.043213 21.057495 77.81813 14.960602 79.9055q-5.6719666 1.9419098 -10.626587 5.984131q-13.054108 -39.217438 -26.41278 -78.33058l0 0c-14.3594055 -42.04322 -21.057495 -77.81814 -14.960632 -79.90551l0 0c2.927826 -1.0023956 8.475037 6.0566635 15.421265 19.624252c6.946228 13.567596 14.722504 32.532333 21.618134 52.722206z" fill-rule="evenodd"/><path fill="#cfe2f3" d="m347.35947 176.76384l0 0c26.153076 16.977325 44.48471 35.160904 40.944885 40.61418q-3.2931519 5.0732117 -5.279785 10.994553q-24.153595 -16.066559 -48.48401 -31.860703l0 0c-26.153076 -16.97731 -44.48471 -35.160904 -40.944885 -40.614166l0 0c1.6998901 -2.6187592 8.319275 -1.8915558 18.401947 2.0215912c10.082642 3.9131622 22.802704 10.691757 35.361847 18.844543z" fill-rule="evenodd"/><path stroke="#000000" stroke-width="1.0" stroke-linejoin="round" stroke-linecap="butt" d="m347.35947 176.76384l0 0c26.153076 16.977325 44.48471 35.160904 40.944885 40.61418q-3.2931519 5.0732117 -5.279785 10.994553q-24.153595 -16.066559 -48.48401 -31.860703l0 0c-26.153076 -16.97731 -44.48471 -35.160904 -40.944885 -40.614166l0 0c1.6998901 -2.6187592 8.319275 -1.8915558 18.401947 2.0215912c10.082642 3.9131622 22.802704 10.691757 35.361847 18.844543z" fill-rule="evenodd"/><path fill="#cfe2f3" d="m421.50812 137.37245l0 0c-4.827057 59.507584 -17.222076 107.05707 -27.685059 106.20471q-9.733765 -0.79293823 -19.70871 1.3868866q5.013336 -55.317825 9.503998 -110.67822l0 0c4.827057 -59.50759 17.222076 -107.05707 27.685028 -106.20472l0 0c5.0245056 0.4093094 8.922363 12.153849 10.836121 32.64995c1.9137573 20.496101 1.6866455 48.064835 -0.6313782 76.641396z" fill-rule="evenodd"/><path stroke="#000000" stroke-width="1.0" stroke-linejoin="round" stroke-linecap="butt" d="m421.50812 137.37245l0 0c-4.827057 59.507584 -17.222076 107.05707 -27.685059 106.20471q-9.733765 -0.79293823 -19.70871 1.3868866q5.013336 -55.317825 9.503998 -110.67822l0 0c4.827057 -59.50759 17.222076 -107.05707 27.685028 -106.20472l0 0c5.0245056 0.4093094 8.922363 12.153849 10.836121 32.64995c1.9137573 20.496101 1.6866455 48.064835 -0.6313782 76.641396z" fill-rule="evenodd"/><path fill="#cfe2f3" d="m540.06757 258.22693l0 19.448822l0 0c0 10.741272 -34.710297 19.448822 -77.52759 19.448822c-42.81726 0 -77.52756 -8.70755 -77.52756 -19.448822l0 -19.448822z" fill-rule="evenodd"/><path stroke="#000000" stroke-width="1.0" stroke-linejoin="round" stroke-linecap="butt" d="m540.06757 258.22693l0 19.448822l0 0c0 10.741272 -34.710297 19.448822 -77.52759 19.448822c-42.81726 0 -77.52756 -8.70755 -77.52756 -19.448822l0 -19.448822z" fill-rule="evenodd"/><path fill="#cfe2f3" d="m365.19403 188.24672l38.33072 24.629929l0 0c21.169464 13.602722 -2.245697 87.79654 -52.299225 165.71652c-50.053497 77.91998 -107.79115 130.05945 -128.96062 116.456696l-38.330704 -24.629913z" fill-rule="evenodd"/><path stroke="#000000" stroke-width="1.0" stroke-linejoin="round" stroke-linecap="butt" d="m365.19403 188.24672l38.33072 24.629929l0 0c21.169464 13.602722 -2.245697 87.79654 -52.299225 165.71652c-50.053497 77.91998 -107.79115 130.05945 -128.96062 116.456696l-38.330704 -24.629913z" fill-rule="evenodd"/><path fill="#cfe2f3" d="m397.59842 258.2257l0 -19.448807l0 0c0 -10.741287 36.543427 -19.448822 81.62204 -19.448822c45.078613 0 81.62207 8.707535 81.62207 19.448822l0 19.448807z" fill-rule="evenodd"/><path stroke="#000000" stroke-width="1.0" stroke-linejoin="round" stroke-linecap="butt" d="m397.59842 258.2257l0 -19.448807l0 0c0 -10.741287 36.543427 -19.448822 81.62204 -19.448822c45.078613 0 81.62207 8.707535 81.62207 19.448822l0 19.448807z" fill-rule="evenodd"/><path fill="#cfe2f3" d="m454.3911 327.33072l-51.826782 0l0 0c-28.623138 0 -51.82675 -25.77713 -51.82675 -57.5748c0 -31.797699 23.203613 -57.574814 51.82675 -57.574814l51.826782 0z" fill-rule="evenodd"/><path stroke="#000000" stroke-width="1.0" stroke-linejoin="round" stroke-linecap="butt" d="m454.3911 327.33072l-51.826782 0l0 0c-28.623138 0 -51.82675 -25.77713 -51.82675 -57.5748c0 -31.797699 23.203613 -57.574814 51.82675 -57.574814l51.826782 0z" fill-rule="evenodd"/><path fill="#cfe2f3" d="m319.5538 541.2782l0 0c0.01739502 -21.256409 17.651031 -38.48816 39.385834 -38.48816c21.734802 0 39.34024 17.23175 39.322845 38.48816l0 0c-10.250061 -10.53125 -24.4682 -16.491394 -39.34085 -16.491394c-14.87265 0 -29.100555 5.960144 -39.36783 16.491394z" fill-rule="evenodd"/><path stroke="#000000" stroke-width="1.0" stroke-linejoin="round" stroke-linecap="butt" d="m319.5538 541.2782l0 0c0.01739502 -21.256409 17.651031 -38.48816 39.385834 -38.48816c21.734802 0 39.34024 17.23175 39.322845 38.48816l0 0c-10.250061 -10.53125 -24.4682 -16.491394 -39.34085 -16.491394c-14.87265 0 -29.100555 5.960144 -39.36783 16.491394z" fill-rule="evenodd"/></g></svg>