<?xml version="1.0" encoding="UTF-8"?>
<svg id="Layer_2" data-name="Layer 2" xmlns="http://www.w3.org/2000/svg" viewBox="0 0 276.45 277.81">
  <defs>
    <style>
      .cls-1, .cls-2, .cls-3 {
        stroke: #f08521;
      }

      .cls-1, .cls-2, .cls-3, .cls-4 {
        stroke-miterlimit: 10;
      }

      .cls-1, .cls-2, .cls-4 {
        stroke-width: 2px;
      }

      .cls-1, .cls-3 {
        fill: #f08521;
      }

      .cls-2 {
        fill: #f78e1e;
      }

      .cls-4 {
        fill: none;
        stroke: #000;
      }
    </style>
  </defs>
  <g id="Layer_4" data-name="Layer 4">
    <path class="cls-4" d="m138.72,146.15c-6.43.24-12.97-3.13-15.94-10.1l-9.67-22.71,20.33,18.69c4.3,3.95,5.87,9.19,5.28,14.12Z"/>
    <path class="cls-4" d="m164.04,111.12l-10.62,24.93c-2.54,5.95-7.67,9.27-13.11,9.97-.89-4.82.32-10.08,4.29-14.28l17.58-18.65,1.86-1.97Z"/>
    <path class="cls-4" d="m180.91,159.42l-24.05.29c-7.83.09-13.67-4.85-15.87-11.1,5.03-4.1,12.38-5.35,18.98-1.47l20.94,12.28Z"/>
    <path class="cls-4" d="m138.02,149.38c-1.96,6.08-7.3,11.06-14.82,11.53l-20.24,1.26,16.25-12.07c6.06-4.5,13.39-4.13,18.81-.72Z"/>
    <path class="cls-4" d="m145.66,165.57l-3.23,25.43-.33,2.61-.32-1.33-6.44-26.91c-1.41-5.92.4-11.34,3.92-15.13,4.42,3.35,7.23,8.85,6.4,15.33Z"/>
    <path class="cls-3" d="m119.21,150.1l-16.25,12.07-5.35.33-18.64,1.16c-9.14-.51-19.01-2.47-28.96-6-9.05-3.21-17.25-7.39-24.23-12.16C6.96,132.68-3.19,115.61,1.73,101.73c4.92-13.87,23.54-20.73,46.23-18.85,8.44.7,17.44,2.61,26.49,5.82,10.82,3.84,20.39,9.06,28.17,15l10.45,9.61.04.03,9.67,22.71c2.97,6.97,9.51,10.34,15.94,10.1-.13,1.1-.37,2.18-.7,3.23-5.42-3.41-12.75-3.78-18.81.72Z"/>
    <path class="cls-1" d="m133.42,131.24l-20.33-18.69-.38-.88-7.32-17.18c-2.57-8.78-4.02-18.74-4.02-29.3,0-9.6,1.2-18.72,3.36-26.9C110.53,16.27,123.22,1,137.95,1s27.41,15.26,33.21,37.27c2.16,8.19,3.37,17.31,3.37,26.92,0,11.47-1.72,22.24-4.72,31.56l-5.57,13.06-.22.52-1.86,1.97-17.58,18.65c-3.97,4.2-5.18,9.46-4.29,14.28-.53.08-1.06.12-1.59.13.59-4.93-.98-10.17-5.28-14.12Z"/>
    <path class="cls-1" d="m141.78,192.28l.32,1.33-2.03,15.92c-2.21,8.88-5.99,18.2-11.32,27.32-4.85,8.29-10.49,15.55-16.48,21.52-16.13,16.08-34.79,22.86-47.51,15.42-12.7-7.43-15.95-27.01-9.84-48.94,2.27-8.16,5.83-16.64,10.68-24.94,5.79-9.9,12.71-18.33,20.01-24.86l11.4-8.46,5.95-4.42,20.24-1.26c7.52-.47,12.86-5.45,14.82-11.53.43.27.84.56,1.24.86-3.52,3.79-5.33,9.21-3.92,15.13l6.44,26.91Z"/>
    <path class="cls-1" d="m156.86,159.71l24.05-.29,1.17.69,16.11,9.45c7.29,5.53,14.38,12.67,20.67,21.15,5.71,7.72,10.18,15.76,13.31,23.62,8.45,21.14,7.34,40.97-4.5,49.74-11.83,8.76-31.11,4.05-48.87-10.19-6.61-5.29-13.01-11.9-18.73-19.62-6.83-9.22-11.85-18.9-14.99-28.17l-2.98-12.48.33-2.61,3.23-25.43c.83-6.48-1.98-11.98-6.4-15.33.54-.58,1.12-1.12,1.73-1.63,2.2,6.25,8.04,11.19,15.87,11.1Z"/>
    <path class="cls-1" d="m252.8,136.97c-6.64,5.26-14.51,10.03-23.31,13.89-10.5,4.6-21.06,7.36-30.79,8.36l-14.19.16-3.6.04-20.94-12.28c-6.6-3.88-13.95-2.63-18.98,1.47-.3-.84-.53-1.71-.68-2.59,5.44-.7,10.57-4.02,13.11-9.97l10.62-24.93,10.94-11.61c7.01-5.87,15.55-11.2,25.22-15.44,8.8-3.85,17.63-6.42,25.98-7.73,22.49-3.55,41.56,1.9,47.45,15.35,5.9,13.43-3,31.15-20.83,45.28Z"/>
    <g>
      <path class="cls-2" d="m140.18,147.12c-.89-4.82.32-10.08,4.29-14.28l17.58-18.65,1.86-1.97-10.62,24.93c-2.54,5.95-7.67,9.27-13.11,9.97Z"/>
      <path class="cls-2" d="m145.55,163.92l-3.23,25.43-.33,2.61-.32-1.33-6.44-26.91c-1.41-5.92.4-11.34,3.92-15.13,4.42,3.35,7.23,8.85,6.4,15.33Z"/>
      <path class="cls-2" d="m180.91,159.42l-24.05.29c-7.83.09-13.67-4.85-15.87-11.1,5.03-4.1,12.38-5.35,18.98-1.47l20.94,12.28Z"/>
      <path class="cls-2" d="m138.84,148.97c-1.96,6.08-7.3,11.06-14.82,11.53l-20.24,1.26,16.25-12.07c6.06-4.5,13.39-4.13,18.81-.72Z"/>
      <path class="cls-2" d="m139.01,146.95c-6.43.24-12.97-3.13-15.94-10.1l-9.67-22.71,20.33,18.69c4.3,3.95,5.87,9.19,5.28,14.12Z"/>
    </g>
  </g>
</svg>