<?xml version="1.0" encoding="UTF-8"?>
<svg id="Layer_2" data-name="Layer 2" xmlns="http://www.w3.org/2000/svg" viewBox="0 0 469.41 816.72">
  <defs>
    <style>
      .cls-1 {
        fill: none;
        stroke: #000;
        stroke-miterlimit: 10;
        stroke-width: 3px;
      }

      .cls-2 {
        stroke-width: 0px;
      }
    </style>
  </defs>
  <g id="Layer_7" data-name="Layer 7">
    <rect class="cls-2" x="217.81" width="14.74" height="277.04"/>
    <rect class="cls-2" x="174.55" y="269.23" width="197.17" height="18.44"/>
    <rect class="cls-2" x="330.29" y="282.28" width="17.02" height="286.28"/>
    <rect class="cls-2" x="275.7" y="716.22" width="120.37" height="4.18"/>
    <rect class="cls-2" x="238.45" y="811.29" width="115.77" height="5.43"/>
    <rect class="cls-2" y="318.05" width="118.69" height="5.85"/>
    <polygon class="cls-2" points="339.39 339.82 394.18 370.08 285.86 372.25 339.39 339.82"/>
    <polygon class="cls-2" points="340.34 357.98 404.43 391.2 276.25 391.2 340.34 357.98"/>
    <polygon class="cls-2" points="338.06 563.53 469.41 615.05 206.71 615.05 338.06 563.53"/>
    <path class="cls-1" d="m51.7,322.04C52.15,146.56,129.16,4.76,223.88,5"/>
    <line class="cls-1" x1="276.25" y1="391.2" x2="274.92" y2="475.28"/>
    <path class="cls-2" d="m293.08,541.53h-38.28c-5.21,0-8.44-6.56-5.76-11.72l5.48-10.54c-.27-1.03-.41-2.12-.41-3.25v-18.28c0-.27,0-.54.03-.81-.24-1.32-.36-2.69-.36-4.09,0-11.74,8.67-21.26,19.37-21.26s19.37,9.52,19.37,21.26c0,.93-.05,1.84-.16,2.73.12.7.18,1.43.18,2.17v18.28c0,.5-.03,1-.09,1.49l6.39,12.3c2.68,5.16-.55,11.72-5.76,11.72Z"/>
    <path class="cls-1" d="m290.56,437.62c-4.15,7.82-10.65,12.53-14.71,10.74-.52-3.99.84-9.86,3.95-15.72,3.5-6.6,8.25-11.37,12.14-12.65,2.97,2.91,2.48,10.36-1.38,17.63Z"/>
    <path class="cls-1" d="m258.04,413.69c-5.6-6.85-7.43-14.67-4.21-17.72,3.88,1.07,8.77,4.59,12.97,9.73,4.73,5.78,7.28,12.01,6.96,16.09-3.83,1.61-10.51-1.73-15.72-8.1Z"/>
    <line class="cls-1" x1="335.59" y1="616.57" x2="336.75" y2="810.54"/>
    <path class="cls-2" d="m264.09,556.4c-1,2.44-4.45,3.35-7.71,2.01-3.26-1.33-5.08-4.4-4.08-6.84.83-2.03,3.34-2.99,6.04-2.5l4.02-9.82,2.91,1.19-3.99,9.76c2.45,1.52,3.69,4.08,2.83,6.19Z"/>
    <path class="cls-2" d="m277.45,561.41c.22,3.99-2.45,7.4-5.96,7.59s-6.54-2.89-6.76-6.89c-.18-3.31,1.62-6.22,4.25-7.22l-.89-16.06,3.14-.17.88,15.97c2.88.56,5.15,3.33,5.34,6.78Z"/>
    <path class="cls-2" d="m291,550.67c2.1,2.58,1.6,6.48-1.13,8.7-2.73,2.22-6.65,1.92-8.75-.66-1.74-2.14-1.7-5.19-.06-7.43l-8.45-10.38,2.44-1.98,8.4,10.33c2.58-1.33,5.74-.8,7.56,1.43Z"/>
  </g>
</svg>