<?xml version="1.0" encoding="UTF-8"?>
<svg id="Layer_2" data-name="Layer 2" xmlns="http://www.w3.org/2000/svg" viewBox="0 0 444.98 449.02">
  <defs>
    <style>
      .cls-1, .cls-2, .cls-3 {
        stroke-width: 0px;
      }

      .cls-2 {
        fill: #ed2024;
      }

      .cls-3 {
        fill: #ec2027;
      }
    </style>
  </defs>
  <g id="Layer_1-2" data-name="Layer 1">
    <g>
      <path class="cls-3" d="m304.23,153.47c-.17-.41-.32-.82-.43-1.25.17.4.32.82.43,1.25Z"/>
      <path class="cls-1" d="m303.8,152.22c.11.43.26.84.43,1.25-.11-.43-.26-.85-.43-1.25h0Z"/>
    </g>
    <g>
      <path class="cls-3" d="m304.23,153.47c-.17-.41-.32-.82-.43-1.25.17.4.32.82.43,1.25Z"/>
      <path class="cls-1" d="m303.8,152.22c.11.43.26.84.43,1.25-.11-.43-.26-.85-.43-1.25h0Z"/>
    </g>
    <g>
      <path class="cls-2" d="m305.98,448.02c-4.25,0-8.32-1.45-11.77-4.19l-63.2-50.22c-4.5-3.58-7.08-8.74-7.28-14.54l-.02-.48h-.3c-.22-.2-.37-.38-.48-.55l-24.79-76.41-.03-.05c-.52-.82-.91-1.71-1.18-2.63l-.09-.29-.3-.06c-.68-.13-1.36-.28-2.04-.44l-.37-.09-.18.33c-.55,1-1.26,1.92-2.11,2.73l-57.15,70.22c-.14.14-.33.27-.54.38l-.08.04-.06.07c-2.39,2.6-5.49,4.5-8.97,5.5l-78.48,22.5c-1.86.54-3.76.81-5.63.81-6.75,0-13.18-3.65-16.78-9.52-3.54-5.78-3.8-12.57-.71-18.63l36.7-71.9c2.62-5.12,7.17-8.68,12.8-10.01l.38-.09v-.27c.15-.26.31-.47.47-.63l69.98-39.46.04-.04c1.16-1.09,2.51-1.9,4.03-2.42l.4-.13-.06-.41c-.12-.78-.23-1.56-.31-2.35l-.05-.51-.51.07c-.49.06-.98.09-1.46.09-1.98,0-3.93-.52-5.63-1.51l-83.6-34.77c-.14-.08-.34-.23-.54-.42l-.06-.05-.07-.03c-3.17-1.55-5.88-3.98-7.83-7.04L4.17,131.8c-3.96-6.21-4.23-13.75-.71-20.18,3.42-6.24,9.81-10.11,16.69-10.11,1.2,0,2.42.11,3.64.34l79.38,14.68c5.57,1.03,10.4,4.46,13.25,9.41l.14.25h.29c.24.05.53.16.77.29l57.77,55.83.05.03c.68.4,1.29.84,1.81,1.32l.27.26.32-.19c.76-.45,1.54-.89,2.32-1.31l.3-.16-9.63-88.18c.01-.2.05-.44.12-.65l.03-.09v-.09c-.19-3.51.64-7.05,2.38-10.24L212.49,11.35c3.53-6.48,10.02-10.35,17.36-10.35,8.5,0,15.69,5.14,18.33,13.11l25.38,76.63c1.81,5.46,1.15,11.19-1.86,16.14l-.2.34.19.19c.08.31.12.56.12.78l-21.09,77.52v.06c-.05,1.92-.59,3.8-1.58,5.44l-.21.34.29.28c.72.69,1.42,1.38,2.12,2.1l.23.24,85.99-34.29c.17-.04.41-.07.69-.07h.08l.08-.03c2-.66,4.08-1,6.16-1,1.51,0,3.03.18,4.52.53l79.99,18.69c7.6,1.77,13.18,7.66,14.57,15.37,1.45,8.06-1.93,15.91-8.83,20.48l-69.55,46.08c-3.33,2.21-7.14,3.37-11.02,3.37h0c-1.81,0-3.61-.25-5.35-.75l-.29-.08-.17.18c-.29.17-.56.29-.81.36l-81.48.65-.06.02c-.88.23-1.79.34-2.69.35h-.31s-.13.29-.13.29c-.64,1.36-1.3,2.66-1.97,3.86l-.17.3,54.34,66.09c.1.17.2.38.27.61l.02.08.05.07c2.08,2.86,3.33,6.28,3.61,9.88l6.5,81.38c.45,5.61-1.36,10.93-5.1,14.98-3.78,4.09-9.07,6.44-14.52,6.44Zm-125.83-260.31c.1.4.25.82.45,1.32l.95-.32c-.11-.42-.26-.87-.45-1.32l-.94.32Z"/>
      <path class="cls-2" d="m229.85.5v1c8.28,0,15.29,5.01,17.86,12.76l25.38,76.63c1.77,5.31,1.12,10.9-1.82,15.72l-.4.68.36.36c.04.18.06.33.07.46l-21.05,77.39-.03.12v.12c-.05,1.83-.57,3.63-1.51,5.2l-.41.68.58.55c.77.73,1.45,1.42,2.1,2.09l.47.48.62-.25,85.62-34.15c.17-.04.35-.06.57-.06h.16l.15-.05c1.95-.65,3.97-.97,6.01-.97,1.47,0,2.95.17,4.4.52l79.99,18.69c7.4,1.72,12.84,7.46,14.19,14.97,1.42,7.86-1.89,15.52-8.62,19.98l-69.55,46.08c-3.25,2.15-6.97,3.29-10.75,3.29-1.76,0-3.52-.25-5.21-.73l-.58-.15-.33.33c-.21.12-.4.21-.58.27l-81.34.65h-.12s-.12.03-.12.03c-.84.22-1.71.33-2.57.34h-.63s-.27.57-.27.57c-.63,1.35-1.29,2.64-1.96,3.83l-.33.6.43.53,54.08,65.78c.1.16.16.31.21.48l.05.17.1.14c2.03,2.79,3.24,6.12,3.51,9.63l6.5,81.38c.44,5.47-1.33,10.66-4.97,14.6-3.68,3.99-8.84,6.28-14.15,6.28-4.14,0-8.1-1.41-11.45-4.08l-63.2-50.22c-4.38-3.48-6.9-8.51-7.09-14.16l-.04-.97h-.57c-.1-.1-.17-.19-.23-.27l-24.75-76.29-.04-.12-.07-.1c-.49-.79-.87-1.63-1.13-2.5l-.17-.59-.6-.11c-.63-.12-1.29-.26-2.02-.43l-.74-.17-.37.67c-.52.96-1.2,1.83-2.02,2.6l-.05.04-.04.05-57.07,70.13c-.13.12-.26.22-.41.29l-.16.08-.12.14c-2.33,2.53-5.35,4.38-8.74,5.36l-78.48,22.5c-1.82.52-3.67.79-5.49.79-6.58,0-12.84-3.56-16.35-9.28-3.45-5.63-3.7-12.24-.69-18.14l36.7-71.9c2.55-4.99,6.98-8.45,12.47-9.75l.77-.19v-.52c.09-.15.19-.27.28-.37l69.86-39.39.11-.06.09-.08c1.1-1.04,2.4-1.82,3.85-2.31l.79-.27-.13-.83c-.1-.63-.22-1.47-.3-2.33l-.1-1.02-1.02.13c-.46.06-.94.09-1.4.09-1.89,0-3.75-.5-5.38-1.44l-.06-.03-.06-.03-83.48-34.72c-.15-.09-.29-.2-.44-.35l-.11-.11-.14-.07c-3.09-1.51-5.73-3.88-7.63-6.86L4.59,131.53c-3.87-6.05-4.12-13.41-.69-19.67,3.33-6.08,9.56-9.85,16.25-9.85,1.17,0,2.36.11,3.55.33l79.38,14.68c5.51,1.01,10.09,4.27,12.9,9.16l.3.5h.47c.21.05.41.12.57.2l57.67,55.73.09.08.11.06c.65.38,1.23.8,1.72,1.26l.55.51.64-.38c.75-.45,1.52-.88,2.3-1.3l.6-.32-.07-.67-9.58-87.76c.01-.2.04-.37.09-.52l.06-.17v-.18c-.19-3.42.62-6.87,2.32-9.98L212.93,11.59c3.45-6.32,9.77-10.09,16.92-10.09V.5m-49.71,188.72l1.89-.63c-.11-.45-.27-.91-.48-1.39l-1.89.64c.11.43.26.87.48,1.39M229.85.5c-6.91,0-13.9,3.45-17.8,10.61l-39.12,71.65c-1.87,3.42-2.63,7.03-2.45,10.51-.09.28-.13.57-.14.86l9.59,87.84c-.79.42-1.57.86-2.34,1.32-.57-.53-1.21-.99-1.9-1.39l-57.77-55.83c-.3-.17-.66-.3-1.06-.38h0c-2.77-4.82-7.51-8.53-13.59-9.65l-79.38-14.68c-1.27-.23-2.52-.35-3.73-.35-15.09,0-25.15,17.36-16.4,31.06l43.94,68.8c2.1,3.29,4.9,5.69,8.03,7.22.21.2.44.38.69.52l83.54,34.74c1.84,1.07,3.87,1.58,5.88,1.58.51,0,1.02-.03,1.53-.1.08.8.19,1.59.31,2.38-1.53.52-2.97,1.36-4.21,2.53l-69.98,39.46c-.25.23-.47.54-.67.9h0c-5.41,1.29-10.31,4.77-13.13,10.28l-36.7,71.9c-6.97,13.68,3.71,28.88,17.93,28.88,1.87,0,3.8-.26,5.77-.83l78.48-22.5c3.74-1.07,6.84-3.07,9.2-5.64.26-.13.49-.3.7-.51l57.11-70.17c.9-.85,1.64-1.81,2.21-2.85.68.16,1.37.31,2.06.44.28.95.69,1.87,1.24,2.75l24.79,76.41c.18.3.44.57.75.84h0c.19,5.56,2.63,11.06,7.47,14.91l63.2,50.22c3.73,2.97,7.95,4.3,12.08,4.3,10.89,0,21.13-9.25,20.11-21.96l-6.5-81.38c-.3-3.88-1.65-7.32-3.7-10.14-.08-.28-.2-.54-.36-.79l-54.12-65.83c.71-1.27,1.37-2.57,1.99-3.89.92,0,1.87-.13,2.81-.37l81.48-.65c.35-.09.7-.25,1.06-.47h.01c1.77.49,3.62.76,5.49.76,3.81,0,7.73-1.09,11.3-3.46l69.55-46.08c14.97-9.92,11.31-32.75-5.9-36.76l-79.99-18.69c-1.56-.37-3.11-.54-4.63-.54-2.19,0-4.32.36-6.32,1.02-.3,0-.59.03-.88.11l-85.68,34.17c-.7-.72-1.41-1.42-2.13-2.11,1.01-1.68,1.6-3.62,1.65-5.69l21.09-77.52c.01-.35-.06-.72-.17-1.11h0c2.89-4.76,3.86-10.7,1.91-16.57l-25.38-76.63c-2.93-8.84-10.82-13.45-18.81-13.45h0Zm-48.79,188.34c-.17-.41-.32-.82-.43-1.25.17.4.32.82.43,1.25h0Z"/>
    </g>
    <g>
      <path class="cls-3" d="m304.23,153.47c-.17-.41-.32-.82-.43-1.25.17.4.32.82.43,1.25Z"/>
      <path class="cls-1" d="m303.8,152.22c.11.43.26.84.43,1.25-.11-.43-.26-.85-.43-1.25h0Z"/>
    </g>
  </g>
</svg>