<?xml version="1.0" encoding="UTF-8"?>
<svg id="Layer_2" data-name="Layer 2" xmlns="http://www.w3.org/2000/svg" viewBox="0 0 305.19 402.59">
  <defs>
    <style>
      .cls-1 {
        fill: #f08521;
      }

      .cls-1, .cls-2, .cls-3, .cls-4, .cls-5 {
        stroke: #000;
        stroke-miterlimit: 10;
        stroke-width: 2px;
      }

      .cls-2 {
        fill: #64c6c2;
      }

      .cls-3 {
        fill: #faf394;
      }

      .cls-4 {
        fill: #6fccdd;
      }

      .cls-5 {
        fill: none;
      }
    </style>
  </defs>
  <g id="Layer_3" data-name="Layer 3">
    <g>
      <g>
        <path class="cls-1" d="m152.78,11.8c-1.31-.22-2.62-.29-3.96-.18-.37.03-.75.08-1.1.13-8.5,1.41-15.33,9.93-18.97,22.09-10.44.61-21.5.96-32.93,1.04-1.43.02-2.86.02-4.29.02-4.69,0-9.3-.05-13.86-.13-22.55-.47-43.29-2.04-60.57-4.43-.02.02-.03,0-.05,0-.37-.05-.73-.1-1.1-.14-5.34-.76-10.34-1.59-14.95-2.49C1.34,12.92,38.94,1,85.29,1c27.63,0,52.12,4.24,67.49,10.8Z"/>
        <path class="cls-1" d="m128.56,34.49c-.38,1.38-.75,2.8-1.05,4.26-.06.18-.09.37-.11.58-.88,4.15-1.39,8.63-1.48,13.3-9.99,1.88-21.21,3.04-33.08,3.25-22.03.39-41.95-2.54-55.97-7.54-12.88-4.58-20.81-10.91-20.92-18.01,0-.05,0-.08.02-.13-.02-.02,0-.05,0-.06.37.06.73.14,1.1.21.02,0,.03.02.05,0,17.8,3.42,41.78,5.48,68.51,5.62,4.13,0,8.31-.02,12.56-.1,1.31-.02,2.6-.05,3.9-.08,9.15-.22,18.01-.67,26.48-1.3Z"/>
      </g>
      <g>
        <path class="cls-3" d="m169.84,102.9c-.65.63-1.31,1.22-1.97,1.82.02.06.03.14.07.21-8.95,9.09-20.85,15.49-34.56,17.63-.85.14-1.7.26-2.55.35s-1.7.18-2.54.24c-.15-.51-.31-1.05-.46-1.58-1.48-5.07-2.59-10.12-3.34-15.06-2.38-15.31-1.41-29.79,2.37-42.3-.15-1.06-.27-2.16-.37-3.25-.03-.47-.07-.92-.09-1.4-.17-2.41-.24-4.78-.15-7.09.1-4.68.66-9.17,1.65-13.32.02-.21.05-.4.12-.58.34-1.46.75-2.88,1.17-4.26.08-.23.15-.43.22-.64,4.07-12.18,11.71-20.7,21.21-22.12.39-.05.82-.1,1.23-.13,1.5-.11,2.96-.05,4.43.18,1.48.48,2.96.98,4.43,1.51,1.92,1.45,3.76,2.99,5.46,4.65-.89-.64-1.8-1.22-2.72-1.72-.92-.32-1.84-.66-2.76-.98,12.31,9.07,21.19,22.54,23.93,38.48.53,3.14.8,6.26.82,9.33-.1,15.12-5.87,29.24-15.59,40.04Z"/>
        <path class="cls-5" d="m167.87,104.72c.66-.6,1.33-1.19,1.97-1.82-.61.69-1.24,1.37-1.91,2.03-.03-.06-.05-.14-.07-.21Z"/>
        <path class="cls-5" d="m185.43,62.87c-.02-3.07-.29-6.19-.82-9.33-2.74-15.94-11.63-29.4-23.93-38.48.92.32,1.84.66,2.76.98.92.5,1.84,1.08,2.72,1.72,9.46,8.93,16.15,20.83,18.45,34.52.6,3.55.87,7.09.82,10.58Z"/>
        <path class="cls-2" d="m218.01,176.06c-.56-1.69-1.11-3.36-1.62-5.04-2.62-8.45-4.78-16.96-7.03-25.22-2.89-10.57-5.75-21.23-8.65-31.88l-9.45-29.08-2.14-6.6-2.49-7.67c-.36-.2-.73-.42-1.09-.61-.41,3.42-1.12,6.78-2.12,10.03-2.25,7.46-5.96,14.37-10.83,20.38-1.28,1.57-2.64,3.08-4.07,4.52-.95.97-1.96,1.9-2.98,2.81-8.56,7.57-19.39,12.84-31.64,14.74-.85.13-1.7.24-2.55.34-.85.1-1.7.18-2.54.24,14.42,47.01,55.53,80.03,92.47,73.94,1.65-.28,3.25-.63,4.82-1.05-3.23-6.45-5.84-13.13-8.09-19.86Z"/>
        <path class="cls-4" d="m215.87,170.75c-10.84-5.34-23.93-18.51-34.56-35.89-6.32-10.31-10.81-20.62-13.31-29.69-.03-.08-.05-.16-.07-.24-.03-.06-.05-.14-.07-.21.66-.6,1.33-1.19,1.97-1.82.77-.72,1.52-1.46,2.23-2.22,6.3-6.66,11-14.67,13.67-23.45.94.45,1.89.95,2.86,1.5l2.14,6.55,9.45,28.84c2.89,10.57,5.75,21.14,8.65,31.62,2.25,8.19,4.41,16.63,7.03,25.01Z"/>
      </g>
      <g>
        <path class="cls-1" d="m296.82,360.38c-.41,3.98-1.61,7.91-3.64,11.5l-9.46,16.69c-7.34,12.96-22.94,16.93-34.67,8.82l-2.21-1.52c-3.72-2.57-6.63-6.06-8.61-10.04-.24-.45-.45-.9-.65-1.37-3.64-8.34-3.47-18.5,1.28-26.88l9.45-16.69c.17-.32.36-.63.56-.93,6-14.76,10-32.21,11.13-50.92.28-4.87.37-9.64.27-14.33-1.31-20.07-5.06-37.75-10.62-51.26-5.52-12.12-12.91-21.31-21.57-26.33-.13-.05-.25-.1-.39-.14-.08-.73-.2-1.45-.36-2.16,2.45-.3,4.9-.28,7.38.04,12.31,3.25,24.23,11.27,34.64,22.85,10.86,13.07,20.63,31.03,28.05,52.14,1.46,4.98,2.72,10.09,3.76,15.36,5.42,27.75,3.4,54.32-4.32,75.16Z"/>
        <path class="cls-1" d="m262.59,300.13c-.4,2.09-.84,4.13-1.33,6.15l-6.77,19.24-9.45,26.9c-2.74,7.84-11.23,11.93-18.84,9.1l-8.91-3.33c-7.61-2.83-11.58-11.55-8.83-19.4l3.96-11.28c1-3.79,1.96-7.63,2.89-11.54,13.92-58.68,15.32-109.15,3.8-117.56.04-.49.09-.99.13-1.5,1.75-.08,3.48.03,5.2.38.13.01.25.04.39.07,8.63,3.17,16.54,9.94,22.98,19.34,6.64,10.54,12.02,24.74,15.35,41.2.59,3.87,1.01,7.82,1.27,11.88.61,10.58-.07,20.83-1.83,30.37Z"/>
      </g>
    </g>
  </g>
</svg>